<svg height="16px" viewBox="0 0 96 16" width="96px" x="0px" xmlns:xlink="http://www.w3.org/1999/xlink" xmlns="http://www.w3.org/2000/svg" y="0px">

  <g>
    <g>
      <g>
        <g>
          <rect fill="#fff" height="3.3" width="4.6" x="0" y="4.1"/>
          <path d="M4.6,0.5C4.6,0.2,4.4,0,4.1,0H0.5C0.2,0,0,0.2,0,0.5v2.6h4.6L4.6,0.5L4.6,0.5z" fill="#fff"/>
          <path d="M4.6,15.4v-2.6H0v2.6c0,0.3,0.2,0.5,0.5,0.5h3.6C4.4,15.9,4.6,15.7,4.6,15.4z M2.3,13.9
						c0.3,0,0.5,0.2,0.5,0.5c0,0.3-0.2,0.5-0.5,0.5s-0.5-0.2-0.5-0.5S2.1,13.9,2.3,13.9z" fill="#fff"/>
          <rect fill="#fff" height="3.3" width="4.6" x="0" y="8.5"/>
        </g>
      </g>
    </g>
    <polygon fill="#fff" points="9.7,5.4 5.9,3.2 5.2,4.4 5.2,6.5 8.2,8.2 	"/>
    <path d="M11.4,2.4c0.1-0.1,0.1-0.2,0-0.4c0-0.1-0.1-0.2-0.2-0.3l-3-1.7C8.2,0,8.1,0,8,0C7.8,0,7.6,0.1,7.6,0.3
			L6.3,2.4l3.8,2.2L11.4,2.4z" fill="#fff"/>
    <polygon fill="#fff" points="5.2,12.3 5.2,13.4 5.7,12.6 	"/>
    <polygon fill="#fff" points="7.7,9 5.2,7.6 5.2,11.2 6.2,11.7 	"/>
    <polygon fill="#fff" points="10.4,5.7 9.8,6.2 8.5,8.5 10.7,11.1 13.1,9.1 10.4,5.8 	"/>
    <path d="M15.9,6.3l-2.1-2.7c-0.1-0.1-0.2-0.2-0.4-0.2c-0.1,0-0.2,0-0.3,0.1l-1.9,1.6l2.8,3.4L15.8,7
			C16,6.8,16.1,6.5,15.9,6.3z" fill="#fff"/>
    <path d="M5.2,14.3l0,1.1l1.5-1.2l-0.9-1.1L5.2,14.3z" fill="#fff"/>
    <polygon fill="#fff" points="6.4,12.3 7.5,13.7 9.9,11.7 8,9.3 	"/>
  </g>

  <g transform="translate(16, 0)"><path d="M8,2c1.1,0,2,0.9,2,2v1c0,1.1-0.9,2-2,2S6,6.1,6,5V4C6,2.9,6.9,2,8,2 M8,0C5.8,0,4,1.8,4,4v1
	c0,2.2,1.8,4,4,4s4-1.8,4-4V4C12,1.8,10.2,0,8,0L8,0z" fill="#fff"/>
    <path d="M9,12c1.5,0,2.8,0.8,3.5,2l-8.9,0c0.7-1.2,2-2,3.5-2H9 M9,10H7c-3.3,0-6,2.7-6,6v0h14v0
	C15,12.7,12.3,10,9,10L9,10z" data-color="color-2" fill="#fff"/></g>
  <g transform="translate(32, 0)"><path d="M12,0H1v16h11c1.7,0,3-1.3,3-3V3C15,1.3,13.7,0,12,0z M13,13c0,0.6-0.4,1-1,1H3V2h9c0.6,0,1,0.4,1,1V13z" fill="#fff"/>
    <polygon data-color="color-2" fill="#fff" points="5,9 7,7 9,9 9,3 5,3 "/></g>
  <g transform="translate(48, 0)">
    <path d="M8,0C3.6,0,0,3.1,0,7c0,3.9,3.6,7,8,7c0.2,0,0.4,0,0.6,0l5.4,2v-4.4c1.2-1.2,2-2.8,2-4.6C16,3.1,12.4,0,8,0z
	 M12,10.8v2.3L8.9,12c0,0-0.7,0-0.9,0c-3.3,0-6-2.2-6-5s2.7-5,6-5s6,2.2,6,5C14,9.2,12,10.8,12,10.8z" fill="#fff"/>
  </g>
  <g transform="translate(64, 0)">
    <path d="M8,0C3.6,0,0,3.6,0,8s3.6,8,8,8s8-3.6,8-8S12.4,0,8,0z M13.9,9H8.7L6.9,4.6L5.1,5.4L6.5,9H2.1
	C2,8.7,2,8.3,2,8c0-3.3,2.7-6,6-6s6,2.7,6,6C14,8.3,14,8.7,13.9,9z" fill="#fff"/>
  </g>
  <g transform="translate(80, 0)">
    <path d="M10,14H6c0,1.1,0.9,2,2,2S10,15.1,10,14z" data-color="color-2" fill="#fff"/>
    <path d="M15,11h-0.5C13.8,10.3,13,9.3,13,8V5c0-2.8-2.2-5-5-5S3,2.2,3,5v3c0,1.3-0.8,2.3-1.5,3H1c-0.6,0-1,0.4-1,1
	s0.4,1,1,1h14c0.6,0,1-0.4,1-1S15.6,11,15,11z" fill="#fff"/>
  </g>
</svg>
